<svg xmlns="http://www.w3.org/2000/svg" viewBox="0 0 512 512">
  <defs>
    <linearGradient id="bg" x1="0%" y1="0%" x2="100%" y2="100%">
      <stop offset="0%" style="stop-color:#0a0a1a"/>
      <stop offset="100%" style="stop-color:#12122a"/>
    </linearGradient>
    <linearGradient id="accent" x1="0%" y1="0%" x2="100%" y2="100%">
      <stop offset="0%" style="stop-color:#00ffcc"/>
      <stop offset="100%" style="stop-color:#00ccff"/>
    </linearGradient>
  </defs>
  
  <!-- Background -->
  <rect width="512" height="512" rx="100" fill="url(#bg)"/>
  
  <!-- Outer ring -->
  <circle cx="256" cy="256" r="180" fill="none" stroke="url(#accent)" stroke-width="4" opacity="0.2"/>
  
  <!-- Inner glow circle -->
  <circle cx="256" cy="256" r="140" fill="url(#accent)" opacity="0.1"/>
  
  <!-- Phone icon -->
  <g transform="translate(156, 156) scale(0.4)">
    <path 
      d="M497.39 361.8l-112-48a24 24 0 0 0-28 6.9l-49.6 60.6A370.66 370.66 0 0 1 130.6 204.11l60.6-49.6a23.94 23.94 0 0 0 6.9-28l-48-112A24.16 24.16 0 0 0 122.6.61l-104 24A24 24 0 0 0 0 48c0 256.5 207.9 464 464 464a24 24 0 0 0 23.4-18.6l24-104a24.29 24.29 0 0 0-14.01-27.6z" 
      fill="url(#accent)"
    />
  </g>
  
  <!-- Signal waves -->
  <g stroke="url(#accent)" stroke-width="6" fill="none" opacity="0.6">
    <path d="M340 172 Q380 212 340 252" stroke-linecap="round"/>
    <path d="M370 142 Q430 212 370 282" stroke-linecap="round"/>
    <path d="M400 112 Q480 212 400 312" stroke-linecap="round"/>
  </g>
</svg>
